# xmcd
#
# Track frame offsets:
#	150
#	18990
#	40275
#	54303
#	68184
#	82457
#	99616
#	115598
#	133143
#	147383
#	175049
#	194201
#	207863
#	226621
#	245745
#	259744
#	274899
#	291159
#	305134
#	316130
#	329283
#
# Disc length: 4551 seconds
#
# Revision: 0
# Processed by: cddbd v1.5.1PL0 Copyright (c) Steve Scherf et al.
# Submitted via: dBpowerAMP V4.0
#
DISCID=4311c515
DTITLE=Eduardo costa  - acustico
DYEAR=2004
DGENRE=sertanejo
TTITLE0=Eduardo costa acustico
TTITLE1=Eduardo costa acustico 
TTITLE2=Eduardo costa acustico
TTITLE3=Eduardo costa acustico
TTITLE4=Eduardo costa acustico
TTITLE5=Eduardo costa acustico
TTITLE6=Eduardo costa acustico
TTITLE7=Eduardo costa acustico
TTITLE8=Eduardo costa acustico
TTITLE9=Eduardo costa acustico
TTITLE10=Eduardo costa acustico
TTITLE11=Eduardo costa acustico
TTITLE12=Eduardo costa acustico
TTITLE13=Eduardo costa acustico
TTITLE14=Eduardo costa acustico
TTITLE15=Eduardo costa acustico
TTITLE16=Eduardo costa acustico
TTITLE17=Eduardo costa acustico
TTITLE18=Eduardo costa acustico
TTITLE19=Eduardo costa acustico
TTITLE20=Eduardo costa acustico
EXTD=eduardo costa ao vivo acustico
EXTT0=
EXTT1=
EXTT2=
EXTT3=
EXTT4=
EXTT5=
EXTT6=
EXTT7=
EXTT8=
EXTT9=
EXTT10=
EXTT11=
EXTT12=
EXTT13=
EXTT14=
EXTT15=
EXTT16=
EXTT17=
EXTT18=
EXTT19=
EXTT20=
PLAYORDER=
